<svg width="56" height="61" viewBox="0 0 56 61" fill="none" xmlns="http://www.w3.org/2000/svg">
<g filter="url(#filter0_dd_1_683)">
<path d="M49 43.75L46.5255 41.2755L42 45.801V31.5H38.5V45.801L33.9745 41.2755L31.5 43.75L40.25 52.5L49 43.75Z" fill="#23B123"/>
<path d="M17.5 49V17.5H38.5V26.25H42V10.5C41.9991 9.57203 41.63 8.68233 40.9739 8.02615C40.3177 7.36997 39.428 7.00093 38.5 7H17.5C16.572 7.00093 15.6823 7.36997 15.0261 8.02615C14.37 8.68233 14.0009 9.57203 14 10.5V49C14.0009 49.928 14.37 50.8177 15.0261 51.4739C15.6823 52.13 16.572 52.4991 17.5 52.5H28V49H17.5ZM17.5 10.5H38.5V14H17.5V10.5Z" fill="#23B123"/>
</g>
<defs>
<filter id="filter0_dd_1_683" x="-4" y="0" width="64" height="64" filterUnits="userSpaceOnUse" color-interpolation-filters="sRGB">
<feFlood flood-opacity="0" result="BackgroundImageFix"/>
<feColorMatrix in="SourceAlpha" type="matrix" values="0 0 0 0 0 0 0 0 0 0 0 0 0 0 0 0 0 0 127 0" result="hardAlpha"/>
<feOffset dy="4"/>
<feGaussianBlur stdDeviation="2"/>
<feComposite in2="hardAlpha" operator="out"/>
<feColorMatrix type="matrix" values="0 0 0 0 0 0 0 0 0 0 0 0 0 0 0 0 0 0 0.25 0"/>
<feBlend mode="normal" in2="BackgroundImageFix" result="effect1_dropShadow_1_683"/>
<feColorMatrix in="SourceAlpha" type="matrix" values="0 0 0 0 0 0 0 0 0 0 0 0 0 0 0 0 0 0 127 0" result="hardAlpha"/>
<feOffset dy="4"/>
<feGaussianBlur stdDeviation="2"/>
<feComposite in2="hardAlpha" operator="out"/>
<feColorMatrix type="matrix" values="0 0 0 0 0 0 0 0 0 0 0 0 0 0 0 0 0 0 0.25 0"/>
<feBlend mode="normal" in2="effect1_dropShadow_1_683" result="effect2_dropShadow_1_683"/>
<feBlend mode="normal" in="SourceGraphic" in2="effect2_dropShadow_1_683" result="shape"/>
</filter>
</defs>
</svg>
