<svg width="1511" height="816" viewBox="0 0 1511 816" fill="none" xmlns="http://www.w3.org/2000/svg">
<circle cx="121.5" cy="86.5" r="292" stroke="white"/>
<circle cx="176.5" cy="31.5" r="292" stroke="white"/>
<path d="M1491 777.618L1495.01 789.974L1495.13 790.32H1495.49H1508.48L1497.97 797.956L1497.68 798.17L1497.79 798.515L1501.8 810.871L1491.29 803.235L1491 803.021L1490.71 803.235L1480.2 810.871L1484.21 798.515L1484.32 798.17L1484.03 797.956L1473.52 790.32H1486.51H1486.87L1486.99 789.974L1491 777.618Z" stroke="white"/>
<circle cx="1483" cy="427" r="8" fill="white"/>
<path d="M407 379L411.49 392.82H426.021L414.265 401.361L418.756 415.18L407 406.639L395.244 415.18L399.735 401.361L387.979 392.82H402.51L407 379Z" fill="white"/>
<circle cx="561.5" cy="765.5" r="8" stroke="white"/>
</svg>
